<svg width="39" height="39" viewBox="0 0 39 39" fill="none" xmlns="http://www.w3.org/2000/svg">
<path fill-rule="evenodd" clip-rule="evenodd" d="M14.6362 4.88038C12.0484 4.88038 9.56653 5.90835 7.73665 7.73815C5.90676 9.56795 4.87875 12.0497 4.87875 14.6374C4.87875 17.2251 5.90676 19.7069 7.73665 21.5367C9.56653 23.3665 12.0484 24.3944 14.6362 24.3944C17.2241 24.3944 19.7059 23.3665 21.5358 21.5367C23.3657 19.7069 24.3937 17.2251 24.3937 14.6374C24.3937 12.0497 23.3657 9.56795 21.5358 7.73815C19.7059 5.90835 17.2241 4.88038 14.6362 4.88038ZM2.76775e-07 14.6374C-0.000293675 12.334 0.543108 10.0631 1.58601 8.00932C2.62891 5.95554 4.14187 4.1769 6.00182 2.81805C7.86178 1.45921 10.0162 0.558537 12.2899 0.189285C14.5636 -0.179968 16.8924 -0.00737263 19.0868 0.693033C21.2812 1.39344 23.2793 2.60188 24.9186 4.22007C26.5579 5.83825 27.7921 7.8205 28.5208 10.0056C29.2495 12.1907 29.4522 14.5169 29.1123 16.7951C28.7724 19.0732 27.8996 21.239 26.5648 23.1163L38.3152 34.8662C38.7596 35.3262 39.0055 35.9424 38.9999 36.5819C38.9943 37.2215 38.7378 37.8333 38.2855 38.2856C37.8332 38.7378 37.2214 38.9944 36.5818 38.9999C35.9422 39.0055 35.326 38.7596 34.866 38.3153L23.1179 26.5678C20.9283 28.1247 18.3523 29.0489 15.6722 29.2391C12.9921 29.4292 10.3114 28.878 7.92382 27.6459C5.53623 26.4137 3.53389 24.5482 2.13622 22.2536C0.738545 19.9591 -0.00052215 17.3241 2.76775e-07 14.6374Z" fill="white"/>
</svg>
